<?xml version="1.0" encoding="UTF-8" standalone="no"?>
<!-- Created with Inkscape (http://www.inkscape.org/) -->

<svg
   xmlns:dc="http://purl.org/dc/elements/1.1/"
   xmlns:cc="http://creativecommons.org/ns#"
   xmlns:rdf="http://www.w3.org/1999/02/22-rdf-syntax-ns#"
   xmlns:svg="http://www.w3.org/2000/svg"
   xmlns="http://www.w3.org/2000/svg"
   xmlns:sodipodi="http://sodipodi.sourceforge.net/DTD/sodipodi-0.dtd"
   xmlns:inkscape="http://www.inkscape.org/namespaces/inkscape"
   width="210mm"
   height="297mm"
   viewBox="0 0 210 297"
   version="1.1"
   id="svg8"
   inkscape:version="0.92.5 (2060ec1f9f, 2020-04-08)"
   sodipodi:docname="altimeter.svg"
   inkscape:export-filename="/home/matt/gauges/altimeter.png"
   inkscape:export-xdpi="72.989998"
   inkscape:export-ydpi="72.989998">
  <defs
     id="defs2">
    <inkscape:path-effect
       effect="skeletal"
       id="path-effect839"
       is_visible="true"
       pattern="m -206.33757,51.413729 v 10 h 0.31874 v -10 z m 9.89144,0 v 4.999993 h 0.21712 v -4.999993 z m 9.79694,0 v 10 h 0.31162 v -10 z"
       copytype="repeated_stretched"
       prop_scale="1"
       scale_y_rel="false"
       spacing="0"
       normal_offset="0"
       tang_offset="0"
       prop_units="false"
       vertical_pattern="false"
       fuse_tolerance="0" />
  </defs>
  <sodipodi:namedview
     id="base"
     pagecolor="#ffffff"
     bordercolor="#666666"
     borderopacity="1.0"
     inkscape:pageopacity="0.0"
     inkscape:pageshadow="2"
     inkscape:zoom="1.1689925"
     inkscape:cx="-449.16475"
     inkscape:cy="832.25382"
     inkscape:document-units="mm"
     inkscape:current-layer="layer1"
     showgrid="false"
     showborder="false"
     inkscape:window-width="1848"
     inkscape:window-height="886"
     inkscape:window-x="72"
     inkscape:window-y="27"
     inkscape:window-maximized="1"
     showguides="false" />
  <metadata
     id="metadata5">
    <rdf:RDF>
      <cc:Work
         rdf:about="">
        <dc:format>image/svg+xml</dc:format>
        <dc:type
           rdf:resource="http://purl.org/dc/dcmitype/StillImage" />
        <dc:title />
      </cc:Work>
    </rdf:RDF>
  </metadata>
  <g
     inkscape:label="Layer 1"
     inkscape:groupmode="layer"
     id="layer1">
    <circle
       style="opacity:0.98999999;fill:#000000;stroke:none;stroke-width:0.14311105;stroke-miterlimit:4;stroke-dasharray:none"
       id="path847"
       cx="-101.07983"
       cy="67.162285"
       r="41.759319" />
    <path
       style="opacity:0.98999999;fill:#ffffff;stroke:#ffffff;stroke-width:0.66580695;stroke-miterlimit:4;stroke-dasharray:none"
       d="m -63.201152,79.082993 -9.519769,-3.061697 c -0.02771,0.09237 -0.05599,0.184555 -0.08484,0.276537 l 9.473076,3.168242 c 0.04453,-0.127344 0.08833,-0.255052 0.131506,-0.383091 z m -5.768302,10.866044 -3.935008,-2.988536 c -0.04713,0.06206 -0.09449,0.123961 -0.142048,0.185704 l 3.914577,3.016001 c 0.0544,-0.07086 0.108554,-0.141918 0.162488,-0.213166 z m -8.588372,8.392468 -5.827232,-8.068167 c -0.0794,0.05696 -0.159087,0.113599 -0.239031,0.169889 l 5.755579,8.121674 c 0.103893,-0.07399 0.20746,-0.148459 0.310684,-0.223396 z m -0.310684,0.223396 -5.755579,-8.121674 c -0.08178,0.05758 -0.163822,0.114799 -0.246146,0.171663 l 5.681863,8.175572 c 0.106965,-0.07469 0.213589,-0.149878 0.319862,-0.225561 z m -10.760706,5.540359 -1.633626,-4.701669 c -0.07415,0.02576 -0.148381,0.05129 -0.222684,0.07659 l 1.603989,4.711205 c 0.0842,-0.0284 0.168305,-0.0572 0.252321,-0.0861 z m -11.797474,2.22677 -0.39388,-9.876336 c -0.0955,0.0041 -0.19092,0.0076 -0.28635,0.01069 l 0.29582,9.878372 c 0.12818,-0.004 0.25633,-0.008 0.38441,-0.0127 z m -0.38441,0.0127 -0.29582,-9.878375 c -0.0976,0.0031 -0.19518,0.0058 -0.29273,0.0079 l 0.19508,9.879631 c 0.13121,-0.002 0.26235,-0.005 0.39347,-0.009 z m -12.19294,-1.61277 1.51552,-4.763174 c -0.0296,-0.0094 -0.0593,-0.0189 -0.0889,-0.02842 -0.0455,-0.01463 -0.0909,-0.02935 -0.13626,-0.04418 l -1.55287,4.750269 c 0.0527,0.018 0.10547,0.036 0.15823,0.054 0.0347,0.0106 0.0694,0.0213 0.10422,0.0314 z m -10.79247,-5.666276 5.93122,-7.90378 c -0.0762,-0.05741 -0.15212,-0.115249 -0.22778,-0.173501 l -6.0104,7.845303 c 0.10191,0.07784 0.20423,0.155183 0.30696,0.231974 z m -0.30697,-0.231974 6.01041,-7.845303 c -0.0774,-0.05957 -0.15451,-0.119588 -0.23135,-0.180017 l -6.09055,7.78506 c 0.1034,0.08063 0.20725,0.16067 0.31149,0.24026 z m -8.42551,-8.715253 4.05352,-2.887651 c -0.0455,-0.06392 -0.0909,-0.128003 -0.13603,-0.192227 l -4.07201,2.862604 c 0.0513,0.07257 0.10278,0.14501 0.15452,0.217274 z m -5.5288,-10.637373 9.38724,-3.316271 c -0.0329,-0.09214 -0.0653,-0.184385 -0.0973,-0.276762 l -9.41494,3.231379 c 0.0411,0.120736 0.0828,0.241295 0.12501,0.361654 z m -0.12501,-0.361654 9.41494,-3.231379 c -0.0327,-0.09448 -0.0651,-0.189097 -0.0969,-0.283829 l -9.44247,3.144118 c 0.0409,0.123897 0.0824,0.247591 0.12447,0.37109 z m -2.18402,-11.923483 4.93894,-0.1614 c -0.003,-0.0779 -0.005,-0.155799 -0.007,-0.233715 l -4.93949,0.127152 c 0.002,0.08934 0.005,0.178655 0.007,0.26796 z m 1.54397,-12.079345 9.53998,2.966809 c 0.0253,-0.07628 0.0511,-0.152413 0.0776,-0.228325 0.004,-0.01331 0.008,-0.0266 0.012,-0.03989 l -9.51308,-3.077096 c -0.006,0.01842 -0.0125,0.03685 -0.0187,0.05529 -0.0326,0.107839 -0.0651,0.215597 -0.0977,0.323273 z m 0.11649,-0.378522 9.51307,3.077097 c 0.0276,-0.0924 0.0562,-0.184488 0.0857,-0.276252 l -9.46631,-3.183513 c -0.0451,0.127125 -0.0883,0.254983 -0.13252,0.382651 z m 5.78383,-10.855916 3.9307,2.994359 c 0.0472,-0.06198 0.0947,-0.123829 0.14233,-0.185497 l -3.91025,-3.021782 c -0.0545,0.07079 -0.10872,0.141764 -0.1628,0.212913 z m 8.59978,-8.380388 5.8167,8.076096 c 0.0795,-0.05685 0.15924,-0.113399 0.23927,-0.169589 l -5.74499,-8.129486 c -0.10401,0.07385 -0.20766,0.14818 -0.31098,0.222979 z m 0.31098,-0.222979 5.74499,8.129486 c 0.0818,-0.05748 0.16398,-0.114593 0.24638,-0.171352 l -5.67121,-8.183266 c -0.10706,0.07455 -0.21379,0.14959 -0.32016,0.225132 z m 10.76807,-5.526035 1.62736,4.703698 c 0.0742,-0.02566 0.14845,-0.05109 0.22278,-0.0763 l -1.59771,-4.713193 c -0.0842,0.02833 -0.16838,0.05693 -0.25243,0.08579 z m 11.80077,-2.210543 0.37947,9.876688 c 0.0955,-0.0039 0.19091,-0.0073 0.28632,-0.01026 l -0.28133,-9.878604 c -0.1282,0.0034 -0.25635,0.0075 -0.38446,0.01218 z m 0.38446,-0.01218 0.28133,9.878604 c 0.0976,-0.003 0.19517,-0.0055 0.29271,-0.0074 l -0.18053,-9.87974 c -0.13122,0.0022 -0.26239,0.0051 -0.39351,0.0086 z m 12.192125,1.631281 -1.523962,4.761337 c 0.01372,0.0044 0.02752,0.0088 0.04123,0.01323 0.06131,0.01972 0.122599,0.03965 0.183769,0.05976 l 1.560505,-4.746925 c -0.07103,-0.02442 -0.142206,-0.04868 -0.213458,-0.07275 -0.01607,-0.0049 -0.03223,-0.0099 -0.0483,-0.01475 z m 10.782,5.68331 -5.94293,7.895189 c 0.07612,0.05754 0.151966,0.115494 0.227552,0.173858 l 6.021992,-7.836653 c -0.101807,-0.07794 -0.204011,-0.155415 -0.306613,-0.232399 z m 0.306613,0.232399 -6.021993,7.836653 c 0.07731,0.0597 0.154347,0.119831 0.2311,0.180387 l 6.102033,-7.776356 c -0.103296,-0.08072 -0.207007,-0.160959 -0.31114,-0.240684 z m 8.413288,8.72669 -4.057444,2.882363 c 0.04546,0.06399 0.09072,0.12813 0.135786,0.192414 l 4.075883,-2.857297 c -0.05118,-0.07266 -0.102587,-0.145149 -0.154225,-0.21748 z m 5.514632,10.644717 -9.391366,3.303793 c 0.03272,0.09217 0.06504,0.184459 0.09694,0.276869 l 9.418961,-3.21884 c -0.04096,-0.120796 -0.08247,-0.241406 -0.124534,-0.361822 z m 0.124534,0.361822 -9.418961,3.21884 c 0.03263,0.09452 0.06482,0.18917 0.09658,0.283938 l 9.446357,-3.13152 c -0.04075,-0.123946 -0.08207,-0.2477 -0.123973,-0.371258 z m 2.167592,11.926752 -4.939072,0.154169 c 0.0024,0.07789 0.0046,0.155798 0.0065,0.233705 l 4.939582,-0.119899 c -0.002,-0.08934 -0.0044,-0.178669 -0.007,-0.267972 z m -1.562282,12.078597 -9.536527,-2.983177 c -0.02106,0.06307 -0.04243,0.126048 -0.06403,0.188958 m 4.759885,1.530848 v 0 z m 4.759884,1.530849 c 0.02729,-0.0891 0.05419,-0.178276 0.08078,-0.267485"
       id="path828"
       inkscape:connector-curvature="0" />
    <path
       inkscape:connector-curvature="0"
       id="path825"
       style="font-style:normal;font-variant:normal;font-weight:normal;font-stretch:normal;font-size:7.70859957px;line-height:1.25;font-family:'MS 33558';-inkscape-font-specification:'MS 33558, Normal';font-variant-ligatures:normal;font-variant-caps:normal;font-variant-numeric:normal;font-feature-settings:normal;text-align:start;letter-spacing:0px;word-spacing:0px;writing-mode:lr-tb;text-anchor:start;fill:#ffffff;fill-opacity:1;stroke:none;stroke-width:0.16451436"
       d="m -85.18148,49.095957 q 0,0.04146 -0.01,0.08931 -0.0777,0.360416 -0.45318,0.360416 -0.27515,0 -0.40787,-0.251972 -0.0291,-0.04784 -0.0486,-0.197751 v -5.62631 q 0.01,-0.07654 0.0226,-0.143528 0.0162,-0.07017 0.0712,-0.13396 0.12947,-0.156286 0.3334,-0.169045 0.20394,-0.01595 0.35285,0.127582 0.0777,0.07655 0.10034,0.146717 0.0227,0.07017 0.0389,0.172234 z" />
    <path
       inkscape:connector-curvature="0"
       id="path827"
       style="font-style:normal;font-variant:normal;font-weight:normal;font-stretch:normal;font-size:7.70859957px;line-height:1.25;font-family:'MS 33558';-inkscape-font-specification:'MS 33558, Normal';font-variant-ligatures:normal;font-variant-caps:normal;font-variant-numeric:normal;font-feature-settings:normal;text-align:start;letter-spacing:0px;word-spacing:0px;writing-mode:lr-tb;text-anchor:start;fill:#ffffff;fill-opacity:1;stroke:none;stroke-width:0.16451436"
       d="m -77.622735,61.885642 q -0.19099,0 -0.32694,-0.130771 -0.13272,-0.13077 -0.13272,-0.322141 0,-0.0063 0.0323,-0.20094 0.0356,-0.197751 0.0421,-0.226455 0.16508,-0.781433 0.64092,-1.486316 0.47909,-0.704883 1.15563,-1.154606 0.23953,-0.159476 0.43376,-0.33171 0.19745,-0.175423 0.40138,-0.392311 0.2622,-0.293435 0.2266,-0.666609 -0.0323,-0.373174 -0.3755,-0.59006 -0.42081,-0.258352 -0.85457,-0.01276 -0.43376,0.245593 -0.41434,0.73359 0,0.0096 0,0.02233 0.003,0.0096 0.003,0.01914 0.0194,0.146718 -0.0712,0.287057 -0.0906,0.137149 -0.22983,0.178612 -0.21364,0.06698 -0.39816,-0.04146 -0.18127,-0.108444 -0.20716,-0.318952 -0.01,-0.0287 -0.003,-0.236024 0.01,-0.207319 0.0194,-0.242404 0.14566,-0.784622 0.83515,-1.180122 0.69273,-0.39869 1.4599,-0.140339 0.9096,0.312573 1.1103,1.221586 0.20069,0.909013 -0.43376,1.58838 -0.12948,0.137149 -0.26221,0.271109 -0.12947,0.13077 -0.27838,0.251972 -0.23306,0.191371 -0.49202,0.354037 -0.25573,0.162664 -0.45966,0.382742 -0.23307,0.255161 -0.44023,0.561355 -0.20394,0.306193 -0.32371,0.628335 -0.01,0.01914 -0.0518,0.140339 -0.0389,0.121201 -0.0389,0.13077 h 2.40187 q 0.44671,0.02871 0.43376,0.46567 -0.013,0.436964 -0.44995,0.436964 z" />
    <path
       inkscape:connector-curvature="0"
       id="path829"
       style="font-style:normal;font-variant:normal;font-weight:normal;font-stretch:normal;font-size:7.70859957px;line-height:1.25;font-family:'MS 33558';-inkscape-font-specification:'MS 33558, Normal';font-variant-ligatures:normal;font-variant-caps:normal;font-variant-numeric:normal;font-feature-settings:normal;text-align:start;letter-spacing:0px;word-spacing:0px;writing-mode:lr-tb;text-anchor:start;fill:#ffffff;fill-opacity:1;stroke:none;stroke-width:0.16451436"
       d="m -74.958646,78.11164 q -0.003,-0.194561 0.007,-0.354036 0.013,-0.162666 -0.0712,-0.360416 -0.21041,-0.478428 -0.65387,-0.695315 -0.44024,-0.216888 -0.95493,-0.07336 -0.007,0.0063 -0.0194,0.0063 -0.0259,0.01276 -0.0615,0.01914 -0.15538,0.0319 -0.29134,-0.03827 -0.15537,-0.07017 -0.22658,-0.255161 -0.01,-0.02233 -0.0227,-0.0925 -0.0389,-0.207319 0.0971,-0.341279 l 1.23979,-1.508642 h -1.53112 q -0.21364,0 -0.35283,-0.156286 -0.1392,-0.159476 -0.10035,-0.369985 0.0615,-0.376363 0.44995,-0.376363 h 2.49573 q 0.38522,0 0.45319,0.389122 0.0323,0.213697 -0.0971,0.344467 l -1.20417,1.46399 q 0.0485,0.0096 0.0971,0.02551 0.0518,0.01275 0.10035,0.02233 0.0292,0.0096 0.0356,0.0096 0.66036,0.220077 1.06498,0.733589 0.40787,0.513512 0.47585,1.192881 0.0518,0.510322 -0.16185,0.998318 -0.21041,0.484807 -0.59562,0.816517 -0.6215,0.535839 -1.434,0.535839 -0.82544,0 -1.43724,-0.500754 -0.60855,-0.500754 -0.76717,-1.291755 -0.003,-0.0032 -0.007,-0.06698 0,-0.06379 0,-0.07974 0.0809,-0.382741 0.46288,-0.382741 0.0906,0 0.24602,0.07336 0.0583,0.0319 0.12625,0.130771 0.0712,0.09569 0.0712,0.162664 0,0.03508 0.0453,0.184993 0.0486,0.149908 0.123,0.255162 0.53735,0.79419 1.48904,0.561355 0.26543,-0.06698 0.51792,-0.299815 0.25572,-0.232835 0.33341,-0.494376 0.003,-0.01276 0.0292,-0.09887 0.0291,-0.08612 0.0291,-0.08931 z" />
    <path
       inkscape:connector-curvature="0"
       id="path831"
       style="font-style:normal;font-variant:normal;font-weight:normal;font-stretch:normal;font-size:7.70859957px;line-height:1.25;font-family:'MS 33558';-inkscape-font-specification:'MS 33558, Normal';font-variant-ligatures:normal;font-variant-caps:normal;font-variant-numeric:normal;font-feature-settings:normal;text-align:start;letter-spacing:0px;word-spacing:0px;writing-mode:lr-tb;text-anchor:start;fill:#ffffff;fill-opacity:1;stroke:none;stroke-width:0.16451436"
       d="m -88.737699,89.813477 q -0.23307,0 -0.36902,-0.184992 -0.13273,-0.184993 -0.0648,-0.405069 l 1.45342,-4.458947 q 0,-0.0032 0,-0.0096 0.003,-0.0063 0.007,-0.01276 0.0809,-0.204129 0.28162,-0.267919 0.2007,-0.06379 0.39491,0.04784 0.30105,0.184992 0.18775,0.519892 l -1.26243,3.868886 h 1.5829 v -1.323651 q 0,-0.287056 0.2622,-0.408257 0.2622,-0.121203 0.48555,0.05423 0.16833,0.133961 0.16833,0.354037 v 1.32365 h 0.83839 q 0.22335,0 0.33665,0.143528 0.11329,0.14034 0.11329,0.309384 0,0.169044 -0.11329,0.309383 -0.1133,0.140339 -0.33665,0.140339 h -0.83839 q 0,0.04146 0,0.379553 0,0.338089 0,0.341278 0,0.277488 -0.23954,0.3955 -0.23307,0.108444 -0.45642,-0.01275 -0.22012,-0.121202 -0.21689,-0.382743 0,-0.02233 -0.003,-0.350846 0,-0.328522 0,-0.369985 z" />
    <path
       inkscape:connector-curvature="0"
       id="path833"
       style="font-style:normal;font-variant:normal;font-weight:normal;font-stretch:normal;font-size:7.70859957px;line-height:1.25;font-family:'MS 33558';-inkscape-font-specification:'MS 33558, Normal';font-variant-ligatures:normal;font-variant-caps:normal;font-variant-numeric:normal;font-feature-settings:normal;text-align:start;letter-spacing:0px;word-spacing:0px;writing-mode:lr-tb;text-anchor:start;fill:#ffffff;fill-opacity:1;stroke:none;stroke-width:0.16451436"
       d="m -103.23487,93.907939 q -0.01,-0.0096 -0.0356,-0.05103 -0.0226,-0.04465 -0.0259,-0.05741 -0.0583,-0.197751 0.0453,-0.376364 0.0421,-0.07336 0.11977,-0.130769 0.14243,-0.105254 0.33341,-0.07017 0.19099,0.0319 0.29133,0.175425 0.47908,0.631525 1.26568,0.516702 0.78983,-0.118013 1.02289,-0.889876 0.1133,-0.373174 -0.0194,-0.781432 -0.12948,-0.411448 -0.47584,-0.625146 -0.3755,-0.232835 -0.73481,-0.232835 -0.37549,0 -0.69272,0.197751 -0.0874,0.05741 -0.16509,0.118012 -0.10358,0.07974 -0.20717,0.09568 -0.20717,0.03508 -0.36578,-0.09568 -0.15862,-0.13396 -0.15862,-0.341279 v -2.637732 q 0,-0.03508 0.01,-0.07974 0.01,-0.04784 0.013,-0.0606 0.10034,-0.299816 0.42405,-0.299816 h 2.11053 v 0 q 0.18452,0 0.32047,0.13396 0.207167,0.207319 0.0874,0.478427 -0.11653,0.27111 -0.40787,0.27111 h -1.66382 v 1.448041 q 0,0 0.0485,-0.01595 0.84811,-0.258351 1.64117,0.146718 0.793077,0.401879 1.074701,1.234343 0.0518,0.162665 0.0939,0.395501 0.0809,0.494374 -0.10359,0.98875 -0.181274,0.491186 -0.534114,0.835654 -0.530877,0.523081 -1.298037,0.599629 -0.76718,0.07654 -1.3984,-0.315762 -0.1489,-0.08931 -0.34313,-0.255162 -0.19422,-0.165854 -0.2719,-0.318951 z" />
    <path
       inkscape:connector-curvature="0"
       id="path835"
       style="font-style:normal;font-variant:normal;font-weight:normal;font-stretch:normal;font-size:7.70859957px;line-height:1.25;font-family:'MS 33558';-inkscape-font-specification:'MS 33558, Normal';font-variant-ligatures:normal;font-variant-caps:normal;font-variant-numeric:normal;font-feature-settings:normal;text-align:start;letter-spacing:0px;word-spacing:0px;writing-mode:lr-tb;text-anchor:start;fill:#ffffff;fill-opacity:1;stroke:none;stroke-width:0.16451436"
       d="m -117.73142,87.933879 0.007,-0.03827 q 0.0421,-0.216887 0.0874,-0.430584 0.0486,-0.213699 0.12301,-0.424207 0.10359,-0.322141 0.23954,-0.609198 0.35607,-0.778242 0.85134,-1.352355 0.49526,-0.577303 1.16856,-1.074868 l 0.0323,-0.02233 q 0.33017,-0.216886 0.59561,0.06698 0.26543,0.283866 0.0226,0.58687 -0.042,0.05103 -0.0939,0.08293 -0.37873,0.280677 -0.71862,0.602818 -0.33665,0.322142 -0.59561,0.714453 -0.0518,0.08293 -0.0809,0.121202 l -0.0162,0.02871 -0.0194,0.0319 0.0227,-0.0063 0.0226,-0.0032 q 0.41758,-0.05741 0.73481,-0.0319 0.32047,0.02233 0.71861,0.197751 0.57296,0.258351 0.91285,0.848412 0.34312,0.586871 0.29457,1.199259 -0.01,0.09568 -0.01,0.0925 -0.055,0.318952 -0.16509,0.612387 -0.10682,0.293436 -0.33018,0.539029 -0.84486,0.92177 -2.07493,0.72721 -0.91284,-0.149908 -1.38868,-0.893066 -0.47261,-0.746347 -0.33989,-1.566053 z m 1.01966,0.912202 q 0.10036,0.248783 0.37874,0.446532 0.28162,0.194561 0.55029,0.223267 0.48879,0.05103 0.86429,-0.178613 0.57619,-0.357226 0.57619,-1.046162 0.003,-0.688936 -0.57619,-1.046162 -0.57295,-0.347657 -1.17504,-0.08931 -0.49527,0.216888 -0.67977,0.714453 -0.18128,0.497565 0.0615,0.975992 z" />
    <path
       inkscape:connector-curvature="0"
       id="path837"
       style="font-style:normal;font-variant:normal;font-weight:normal;font-stretch:normal;font-size:7.70859957px;line-height:1.25;font-family:'MS 33558';-inkscape-font-specification:'MS 33558, Normal';font-variant-ligatures:normal;font-variant-caps:normal;font-variant-numeric:normal;font-feature-settings:normal;text-align:start;letter-spacing:0px;word-spacing:0px;writing-mode:lr-tb;text-anchor:start;fill:#ffffff;fill-opacity:1;stroke:none;stroke-width:0.16451436"
       d="m -126.11983,78.28537 q -0.0227,0.07017 -0.0809,0.146718 -0.2363,0.287056 -0.57296,0.108443 -0.33665,-0.178613 -0.21687,-0.532649 l 1.62821,-5.042628 h -2.14614 q -0.22335,0 -0.33665,-0.140339 -0.11006,-0.14034 -0.11006,-0.306194 0,-0.169044 0.11006,-0.309383 0.1133,-0.143529 0.33665,-0.143529 h 2.77089 q 0.22983,0 0.37226,0.184992 0.14566,0.184992 0.0679,0.40188 z" />
    <path
       inkscape:connector-curvature="0"
       id="path839"
       style="font-style:normal;font-variant:normal;font-weight:normal;font-stretch:normal;font-size:7.70859957px;line-height:1.25;font-family:'MS 33558';-inkscape-font-specification:'MS 33558, Normal';font-variant-ligatures:normal;font-variant-caps:normal;font-variant-numeric:normal;font-feature-settings:normal;text-align:start;letter-spacing:0px;word-spacing:0px;writing-mode:lr-tb;text-anchor:start;fill:#ffffff;fill-opacity:1;stroke:none;stroke-width:0.16451436"
       d="m -124.22404,57.914386 q -0.055,0.05423 -0.0809,0.07017 -0.0259,0.01595 0.0486,0.07336 0.007,0.0096 0.013,0.01595 0.01,0.0063 0.0194,0.01276 0.55676,0.548597 0.55676,1.330028 0,0.886686 -0.70566,1.441663 -0.24278,0.191371 -0.57296,0.309383 -0.4985,0.172234 -1.07146,0.04147 -0.46936,-0.114822 -0.82219,-0.440153 -0.35285,-0.328521 -0.50498,-0.781432 -0.22335,-0.688936 0.0712,-1.339598 0.0389,-0.08292 0.055,-0.114823 0.11977,-0.216887 0.2622,-0.369983 0.0389,-0.04146 0.0809,-0.07974 0.0453,-0.04147 0.0906,-0.08292 -0.0648,-0.0606 -0.12624,-0.118012 -0.0583,-0.0606 -0.11653,-0.13077 -0.25897,-0.315763 -0.34637,-0.685747 -0.11653,-0.478428 -0.007,-0.931339 0.10359,-0.421017 0.38845,-0.746348 0.28809,-0.32533 0.68625,-0.503943 0.54382,-0.242404 1.14914,-0.105255 0.60856,0.13396 1.00348,0.570924 0.50173,0.554976 0.48231,1.298134 -0.0194,0.739969 -0.55353,1.266239 z m -0.35931,-1.320461 q 0,-0.574113 -0.55353,-0.857981 -0.55353,-0.283867 -1.00995,0.09888 -0.24277,0.207319 -0.33989,0.494376 -0.0939,0.287055 0.0227,0.59325 0.13919,0.373173 0.44994,0.516701 0.31399,0.143529 0.63122,0.08931 0.31723,-0.05741 0.55677,-0.296624 0.24277,-0.239215 0.24277,-0.637904 z m 0,2.813155 q 0,-0.322141 -0.20393,-0.583682 -0.2007,-0.26154 -0.52116,-0.341278 -0.58266,-0.143528 -0.97111,0.293435 -0.3852,0.433775 -0.18127,0.975994 0.10359,0.274298 0.35283,0.443342 0.25249,0.165856 0.55353,0.165856 0.40139,0 0.68625,-0.277489 0.28486,-0.277488 0.28486,-0.676178 z" />
    <path
       inkscape:connector-curvature="0"
       id="path841"
       style="font-style:normal;font-variant:normal;font-weight:normal;font-stretch:normal;font-size:7.70859957px;line-height:1.25;font-family:'MS 33558';-inkscape-font-specification:'MS 33558, Normal';font-variant-ligatures:normal;font-variant-caps:normal;font-variant-numeric:normal;font-feature-settings:normal;text-align:start;letter-spacing:0px;word-spacing:0px;writing-mode:lr-tb;text-anchor:start;fill:#ffffff;fill-opacity:1;stroke:none;stroke-width:0.16451436"
       d="m -116.4902,49.88481 q -0.19746,0.09569 -0.3852,0.02871 -0.18775,-0.06698 -0.26868,-0.27111 -0.042,-0.105254 -0.01,-0.267919 0.0162,-0.111633 0.13595,-0.223266 0.01,-0.0096 0.0777,-0.05423 0.31399,-0.172234 0.6118,-0.354036 0.30104,-0.181803 0.57618,-0.417827 0.29134,-0.248783 0.58914,-0.637904 -0.52115,0.08612 -1.04556,-0.105254 -0.52439,-0.19456 -0.87399,-0.577303 -0.59885,-0.65704 -0.56,-1.515021 0.0389,-0.86117 0.66358,-1.479936 0.73804,-0.72721 1.79332,-0.577303 1.0585,0.149907 1.58937,1.020646 0.28486,0.468858 0.30105,0.944097 0.0194,0.472048 -0.14567,0.966424 -0.24925,0.602819 -0.54382,1.173742 -0.29457,0.567735 -0.74775,1.0653 -0.37873,0.414637 -0.82544,0.714452 -0.44671,0.296625 -0.93226,0.567734 z m 2.29181,-4.324987 q -0.003,-0.398689 -0.21688,-0.692125 -0.21041,-0.296625 -0.52764,-0.436964 -0.31722,-0.143527 -0.683,-0.108443 -0.36579,0.03508 -0.67007,0.293436 -0.31075,0.26154 -0.40786,0.685746 -0.0939,0.421016 0.0906,0.781432 0.12624,0.322141 0.45642,0.523081 0.33342,0.20094 0.6733,0.20094 0.31723,0 0.5503,-0.114823 0.33341,-0.165855 0.53411,-0.46248 0.20069,-0.296626 0.20069,-0.6698 z" />
    <path
       inkscape:connector-curvature="0"
       id="path843"
       style="font-style:normal;font-variant:normal;font-weight:normal;font-stretch:normal;font-size:7.70859957px;line-height:1.25;font-family:'MS 33558';-inkscape-font-specification:'MS 33558, Normal';font-variant-ligatures:normal;font-variant-caps:normal;font-variant-numeric:normal;font-feature-settings:normal;text-align:start;letter-spacing:0px;word-spacing:0px;writing-mode:lr-tb;text-anchor:start;fill:#ffffff;fill-opacity:1;stroke:none;stroke-width:0.16451436"
       d="m -100.43528,38.481824 q 0.725087,0 1.184749,0.593251 0.45966,0.59325 0.63769,1.205638 0.0745,0.267919 0.12948,0.561355 0.16509,0.870738 0,1.907332 -0.16185,1.036593 -0.77365,1.71915 -0.492022,0.545408 -1.139419,0.545408 -0.99377,0 -1.49551,-1.020646 -0.4985,-1.020646 -0.50497,-2.245421 -0.003,-1.224774 0.48554,-2.245421 0.4888,-1.020646 1.47609,-1.020646 z m 0.0227,0.902634 q -0.3852,0.07654 -0.61179,0.433774 -0.22336,0.357226 -0.33018,0.813327 -0.10683,0.456101 -0.11654,0.921771 -0.01,0.46567 0.0356,0.755916 0.0389,0.274299 0.1845,0.708073 0.14567,0.430586 0.36579,0.743158 0.22335,0.309383 0.50821,0.357226 0.28486,0.04465 0.605317,-0.452911 0.24278,-0.382743 0.362552,-0.972803 0.11978,-0.590062 0.0842,-1.205639 -0.0356,-0.615576 -0.239542,-1.160984 -0.2007,-0.545407 -0.595607,-0.842033 -0.11978,-0.08293 -0.2266,-0.09887 -0.003,0 -0.01,0 -0.003,0 -0.0162,0 z" />
    <rect
       style="opacity:0.98999999;fill:none;stroke:#ffffff;stroke-width:0.79375;stroke-miterlimit:4;stroke-dasharray:none"
       id="rect856"
       width="36.439671"
       height="9.3811083"
       x="-119.10233"
       y="52.358921" />
    <text
       xml:space="preserve"
       style="font-style:normal;font-variant:normal;font-weight:normal;font-stretch:normal;font-size:6.317873px;line-height:1.25;font-family:'MS 33558';-inkscape-font-specification:'MS 33558, Normal';font-variant-ligatures:normal;font-variant-caps:normal;font-variant-numeric:normal;font-feature-settings:normal;text-align:start;letter-spacing:0px;word-spacing:0px;writing-mode:lr-tb;text-anchor:start;fill:#ffffff;fill-opacity:1;stroke:none;stroke-width:0.15794681"
       x="-105.64065"
       y="82.891685"
       id="text860"
       transform="scale(1.0283475,0.97243393)"><tspan
         sodipodi:role="line"
         id="tspan858"
         x="-105.64065"
         y="82.891685"
         style="font-style:normal;font-variant:normal;font-weight:normal;font-stretch:normal;font-size:6.317873px;font-family:'MS 33558';-inkscape-font-specification:'MS 33558, Normal';font-variant-ligatures:normal;font-variant-caps:normal;font-variant-numeric:normal;font-feature-settings:normal;text-align:start;writing-mode:lr-tb;text-anchor:start;fill:#ffffff;stroke-width:0.15794681">ALT</tspan></text>
    <circle
       style="opacity:0.98999999;fill:none;stroke:#ffffff;stroke-width:0.52916664;stroke-miterlimit:4;stroke-dasharray:none"
       id="path862"
       cx="-101.07983"
       cy="67.162285"
       r="3.3005648" />
  </g>
</svg>
