<?xml version="1.0" encoding="UTF-8" standalone="no"?>
<!-- Created with Inkscape (http://www.inkscape.org/) -->

<svg
   xmlns:dc="http://purl.org/dc/elements/1.1/"
   xmlns:cc="http://creativecommons.org/ns#"
   xmlns:rdf="http://www.w3.org/1999/02/22-rdf-syntax-ns#"
   xmlns:svg="http://www.w3.org/2000/svg"
   xmlns="http://www.w3.org/2000/svg"
   xmlns:sodipodi="http://sodipodi.sourceforge.net/DTD/sodipodi-0.dtd"
   xmlns:inkscape="http://www.inkscape.org/namespaces/inkscape"
   width="210mm"
   height="297mm"
   viewBox="0 0 210 297"
   version="1.1"
   id="svg1502"
   inkscape:version="0.92.5 (2060ec1f9f, 2020-04-08)"
   sodipodi:docname="eng_gauge_night.svg">
  <defs
     id="defs1496">
    <inkscape:path-effect
       effect="skeletal"
       id="path-effect2113"
       is_visible="true"
       pattern="#path2049"
       copytype="repeated_stretched"
       prop_scale="1"
       scale_y_rel="false"
       spacing="0"
       normal_offset="0"
       tang_offset="0"
       prop_units="false"
       vertical_pattern="false"
       fuse_tolerance="0" />
  </defs>
  <sodipodi:namedview
     id="base"
     pagecolor="#ffffff"
     bordercolor="#666666"
     borderopacity="1.0"
     inkscape:pageopacity="0.0"
     inkscape:pageshadow="2"
     inkscape:zoom="1.9302918"
     inkscape:cx="79.302277"
     inkscape:cy="125.91953"
     inkscape:document-units="mm"
     inkscape:current-layer="g2387"
     showgrid="false"
     showborder="false"
     inkscape:window-width="1848"
     inkscape:window-height="886"
     inkscape:window-x="72"
     inkscape:window-y="27"
     inkscape:window-maximized="1" />
  <metadata
     id="metadata1499">
    <rdf:RDF>
      <cc:Work
         rdf:about="">
        <dc:format>image/svg+xml</dc:format>
        <dc:type
           rdf:resource="http://purl.org/dc/dcmitype/StillImage" />
        <dc:title />
      </cc:Work>
    </rdf:RDF>
  </metadata>
  <g
     inkscape:label="Layer 1"
     inkscape:groupmode="layer"
     id="layer1">
    <path
       style="color:#000000;font-style:normal;font-variant:normal;font-weight:normal;font-stretch:normal;font-size:medium;line-height:normal;font-family:sans-serif;font-variant-ligatures:normal;font-variant-position:normal;font-variant-caps:normal;font-variant-numeric:normal;font-variant-alternates:normal;font-feature-settings:normal;text-indent:0;text-align:start;text-decoration:none;text-decoration-line:none;text-decoration-style:solid;text-decoration-color:#000000;letter-spacing:normal;word-spacing:normal;text-transform:none;writing-mode:lr-tb;direction:ltr;text-orientation:mixed;dominant-baseline:auto;baseline-shift:baseline;text-anchor:start;white-space:normal;shape-padding:0;clip-rule:nonzero;display:inline;overflow:visible;visibility:visible;opacity:1;isolation:auto;mix-blend-mode:normal;color-interpolation:sRGB;color-interpolation-filters:linearRGB;solid-color:#000000;solid-opacity:1;vector-effect:none;fill:#000000;fill-opacity:1;fill-rule:nonzero;stroke:none;stroke-width:0.75804794;stroke-linecap:butt;stroke-linejoin:miter;stroke-miterlimit:4;stroke-dasharray:none;stroke-dashoffset:0;stroke-opacity:1;color-rendering:auto;image-rendering:auto;shape-rendering:auto;text-rendering:auto;enable-background:accumulate"
       d="M -253.09252,-10.611358 V 4.3887605 h 1.08592 V -10.611358 Z m 10.37676,0 v 10.00042249 h 0.88549 V -10.611358 Z m 10.17632,0 v 10.00042249 h 0.88656 V -10.611358 Z m 10.17738,0 v 10.00042249 h 0.8855 V -10.611358 Z m 10.17633,0 v 10.00042249 h 0.88551 V -10.611358 Z m 10.17633,0 V 4.3887605 h 1.08593 V -10.611358 Z"
       id="path2049"
       inkscape:connector-curvature="0" />
    <g
       id="g2387">
      <rect
         style="opacity:0.98999999;fill:#666666;stroke:none;stroke-width:0.75860465;stroke-miterlimit:4;stroke-dasharray:none"
         id="rect848"
         width="84.666664"
         height="63.5"
         x="0.024052072"
         y="233.5"
         inkscape:export-xdpi="96"
         inkscape:export-ydpi="96" />
      <rect
         style="opacity:0.98999999;fill:#000000;stroke:none;stroke-width:0.62762856;stroke-miterlimit:4;stroke-dasharray:none"
         id="rect883"
         width="84.608101"
         height="19.781557"
         x="0.024052072"
         y="233.5"
         inkscape:export-xdpi="96"
         inkscape:export-ydpi="96" />
      <path
         inkscape:export-ydpi="96"
         inkscape:export-xdpi="96"
         inkscape:connector-curvature="0"
         style="opacity:0.98999999;fill:#000000;stroke:none;stroke-width:0.29292345;stroke-miterlimit:4;stroke-dasharray:none"
         d="m 5e-5,233.81441 h 43.241884 a 40.778554,39.986178 0 0 1 0.09848,2.73115 A 40.778554,39.986178 0 0 1 2.5619601,276.53164 40.778554,39.986178 0 0 1 0,276.44264 Z"
         id="path2298" />
      <path
         inkscape:export-ydpi="96"
         inkscape:export-xdpi="96"
         inkscape:connector-curvature="0"
         id="path2296"
         d="M 84.666666,233.73003 H 42.15875 a 40.086393,39.986169 0 0 0 -0.09686,2.73115 40.086393,39.986169 0 0 0 40.086326,39.98608 40.086393,39.986169 0 0 0 2.518462,-0.089 z"
         style="opacity:0.98999999;fill:#000000;stroke:none;stroke-width:0.29042673;stroke-miterlimit:4;stroke-dasharray:none" />
      <path
         style="opacity:0.98999999;fill:#66ff00;stroke:none;stroke-width:0.52806914;stroke-miterlimit:4;stroke-dasharray:none"
         d="m 47.681043,235.79198 c -0.006,0.19145 -0.0089,0.38317 -0.01137,0.57516 0.002,0.19196 0.0059,0.38373 0.01137,0.57516 l 6.754109,-0.12764 c -9.03e-4,-0.14912 -3.2e-5,-0.29827 0.0021,-0.44752 -0.0021,-0.14927 -0.003,-0.29838 -0.0021,-0.44752 z m 4.900475,5.21467 -4.394047,0.7798 c 0.0273,0.15137 0.05597,0.30237 0.08527,0.4532 l 4.380611,-0.84285 c -0.0249,-0.12986 -0.04893,-0.25992 -0.07183,-0.39015 z m 1.15807,4.40592 -4.208012,1.4733 c 0.0503,0.14409 0.101309,0.28762 0.153479,0.43098 l 4.188376,-1.53014 c -0.04557,-0.12444 -0.09,-0.24914 -0.133843,-0.37414 z m 1.840715,4.18786 -3.951182,2.09651 c 0.0711,0.13481 0.142661,0.26919 0.215493,0.40308 l 3.925858,-2.14767 c -0.06417,-0.11698 -0.127527,-0.23419 -0.190169,-0.35192 z m 2.448946,3.89589 -3.624585,2.64945 c 0.08962,0.12304 0.180162,0.24601 0.271301,0.36793 l 3.592544,-2.69492 c -0.08046,-0.10708 -0.160142,-0.21444 -0.23926,-0.32246 z m 4.595066,1.96163 -4.840012,4.69843 c 0.130045,0.13398 0.260702,0.26693 0.39274,0.39894 0.13204,0.13202 0.265459,0.26322 0.399459,0.39326 l 4.699455,-4.8395 c -0.110124,-0.10696 -0.219585,-0.21495 -0.328146,-0.3235 -0.108562,-0.10855 -0.216525,-0.21752 -0.323496,-0.32763 z m 2.290818,5.00642 -2.694926,3.59202 c 0.121941,0.0911 0.244363,0.18118 0.367418,0.27079 l 2.649969,-3.62355 c -0.108034,-0.0791 -0.215363,-0.15881 -0.322461,-0.23926 z m 3.866946,2.49752 -2.148189,3.92534 c 0.133747,0.0727 0.267888,0.14446 0.402561,0.21549 l 2.09703,-3.95066 c -0.11761,-0.0626 -0.234538,-0.12608 -0.351402,-0.19017 z m 13.587286,1.33325 c -0.149305,0.002 -0.298358,0.003 -0.447519,0.002 l -0.12764,6.75307 c 0.191481,0.005 0.383143,0.009 0.575159,0.0114 v -5.1e-4 c 0.192005,-0.002 0.383688,-0.006 0.575159,-0.0114 l -0.127643,-6.75256 c -0.149151,6.5e-4 -0.29823,2.2e-4 -0.447516,-0.002 z m -9.42113,0.56327 -1.531173,4.18786 c 0.143553,0.0522 0.287724,0.10367 0.432015,0.154 l 1.473811,-4.2075 c -0.125164,-0.0438 -0.25005,-0.0888 -0.374653,-0.13436 z m 4.390946,1.2206 -0.84336,4.3801 c 0.150844,0.0294 0.302329,0.0574 0.453718,0.0847 l 0.779799,-4.39353 c -0.130249,-0.0229 -0.260279,-0.0465 -0.390157,-0.0713 z"
         id="path2236"
         inkscape:export-xdpi="96"
         inkscape:export-ydpi="96"
         inkscape:connector-curvature="0" />
      <path
         style="opacity:0.98999999;fill:#66ff00;stroke:none;stroke-width:0.52806914;stroke-miterlimit:4;stroke-dasharray:none"
         d="m 37.342656,235.60904 -6.753593,0.12764 c 9e-4,0.14914 2.43e-4,0.29825 -0.0021,0.44752 0.002,0.14927 0.0031,0.29838 0.0021,0.44752 l 6.754109,0.12764 c 0.006,-0.19145 0.0089,-0.38317 0.01137,-0.57516 h -5.16e-4 c -0.002,-0.19199 -0.0059,-0.3837 -0.01137,-0.57516 z m -4.899959,5.21467 c -0.0229,0.13023 -0.04703,0.2603 -0.07183,0.39016 l 4.380611,0.84284 c 0.0294,-0.15082 0.05796,-0.30183 0.08526,-0.4532 z m -1.158068,4.40593 c -0.0439,0.12515 -0.08877,0.25006 -0.134361,0.37465 l 4.188375,1.53066 c 0.0522,-0.14354 0.103667,-0.28775 0.153996,-0.43202 z m -1.840714,4.18837 c -0.0626,0.1176 -0.126082,0.23507 -0.190172,0.35192 l 3.925342,2.14767 c 0.0727,-0.13373 0.144968,-0.26791 0.216009,-0.40256 z m -2.448947,3.89537 c -0.0791,0.10801 -0.158792,0.21537 -0.239262,0.32246 l 3.592544,2.69493 c 0.0911,-0.12192 0.181155,-0.24438 0.270785,-0.36742 z m -4.595069,1.96164 c -0.106971,0.11011 -0.214934,0.21959 -0.323495,0.32814 -0.108569,0.10855 -0.218025,0.21602 -0.328144,0.32298 l 4.699455,4.8395 c 0.134009,-0.13002 0.266901,-0.26073 0.398941,-0.39274 0.13203,-0.13202 0.263226,-0.26496 0.393258,-0.39894 z m -2.290818,5.00641 c -0.107108,0.0804 -0.214947,0.16015 -0.322976,0.23926 l 2.650484,3.62407 c 0.12305,-0.0896 0.245481,-0.18017 0.367419,-0.2713 z m -3.866946,2.49804 c -0.117009,0.0641 -0.234167,0.12754 -0.351917,0.19017 l 2.097029,3.95066 c 0.134832,-0.0711 0.269166,-0.14319 0.403077,-0.21601 z m -13.5872837,1.33274 v 5.1e-4 c -0.1493123,0.002 -0.2988654,0.003 -0.4480349,0.002 l -0.1271243,6.75308 c 0.1914684,0.005 0.3831378,0.009 0.5751592,0.0114 0.1919975,-0.002 0.3836881,-0.006 0.5751565,-0.0119 l -0.1276403,-6.75256 c -0.1491509,6.6e-4 -0.2982383,2.4e-4 -0.4475162,-0.002 z m 9.4206117,0.56379 c -0.124439,0.0455 -0.249116,0.09 -0.374137,0.13384 l 1.473812,4.20749 c 0.144121,-0.0502 0.287613,-0.10132 0.430982,-0.15348 z m -4.3904302,1.22008 c -0.1298681,0.0249 -0.2598949,0.0489 -0.3901572,0.0718 l 0.7797985,4.39353 c 0.1513787,-0.0273 0.3023629,-0.0559 0.4532019,-0.0853 z"
         id="path2260"
         inkscape:export-xdpi="96"
         inkscape:export-ydpi="96"
         inkscape:connector-curvature="0" />
      <path
         inkscape:export-ydpi="96"
         inkscape:export-xdpi="96"
         inkscape:connector-curvature="0"
         style="opacity:0.98999999;fill:#000080;stroke:none;stroke-width:0.19199394;stroke-miterlimit:4;stroke-dasharray:none"
         d="m 5e-5,233.93841 h 28.067879 a 26.468951,26.464997 0 0 1 0.064,1.80762 A 26.468951,26.464997 0 0 1 1.6630201,262.21097 26.468951,26.464997 0 0 1 9e-5,262.15207 Z"
         id="path2298-7" />
      <path
         inkscape:export-ydpi="96"
         inkscape:export-xdpi="96"
         id="path2316"
         d="M 84.666666,233.86915 H 56.598794 a 26.468951,26.464997 0 0 0 -0.06396,1.80763 26.468951,26.464997 0 0 0 26.468897,26.46493 26.468951,26.464997 0 0 0 1.662935,-0.0589 z"
         style="opacity:0.98999999;fill:#000080;stroke:none;stroke-width:0.19199394;stroke-miterlimit:4;stroke-dasharray:none"
         inkscape:connector-curvature="0" />
      <path
         inkscape:export-ydpi="96"
         inkscape:export-xdpi="96"
         id="path2318"
         d="m 5e-5,233.93841 h 12.19767 a 11.502807,11.501088 0 0 1 0.0278,0.78555 A 11.502807,11.501088 0 0 1 0.7227401,246.22502 11.502807,11.501088 0 0 1 7e-5,246.19942 Z"
         style="opacity:0.98999999;fill:#000000;stroke:none;stroke-width:0.08343623;stroke-miterlimit:4;stroke-dasharray:none"
         inkscape:connector-curvature="0" />
      <path
         inkscape:export-ydpi="96"
         inkscape:export-xdpi="96"
         inkscape:connector-curvature="0"
         style="opacity:0.98999999;fill:#000000;stroke:none;stroke-width:0.08343623;stroke-miterlimit:4;stroke-dasharray:none"
         d="M 84.666666,233.86915 H 72.469005 a 11.502807,11.501088 0 0 0 -0.02779,0.78556 11.502807,11.501088 0 0 0 11.502781,11.50105 11.502807,11.501088 0 0 0 0.722675,-0.0256 z"
         id="path2320" />
      <text
         xml:space="preserve"
         style="font-style:normal;font-variant:normal;font-weight:normal;font-stretch:normal;font-size:3.17499995px;line-height:1.25;font-family:'MS 33558';-inkscape-font-specification:'MS 33558, Normal';font-variant-ligatures:normal;font-variant-caps:normal;font-variant-numeric:normal;font-feature-settings:normal;text-align:start;letter-spacing:0px;word-spacing:0px;writing-mode:lr-tb;text-anchor:start;fill:#66ff00;fill-opacity:1;stroke:none;stroke-width:0.26458332;"
         x="38.898544"
         y="238.08069"
         id="text861"
         inkscape:export-xdpi="96"
         inkscape:export-ydpi="96"><tspan
           sodipodi:role="line"
           id="tspan859"
           x="38.898544"
           y="238.08069"
           style="font-style:normal;font-variant:normal;font-weight:normal;font-stretch:normal;font-size:3.17499995px;font-family:'MS 33558';-inkscape-font-specification:'MS 33558, Normal';font-variant-ligatures:normal;font-variant-caps:normal;font-variant-numeric:normal;font-feature-settings:normal;text-align:start;writing-mode:lr-tb;text-anchor:start;fill:#66ff00;stroke:none;stroke-width:0.26458332;">0</tspan></text>
      <text
         xml:space="preserve"
         style="font-style:normal;font-variant:normal;font-weight:normal;font-stretch:normal;font-size:3.17499995px;line-height:1.25;font-family:'MS 33558';-inkscape-font-specification:'MS 33558, Normal';font-variant-ligatures:normal;font-variant-caps:normal;font-variant-numeric:normal;font-feature-settings:normal;text-align:start;letter-spacing:0px;word-spacing:0px;writing-mode:lr-tb;text-anchor:start;fill:#66ff00;fill-opacity:1;stroke:none;stroke-width:0.26458332;"
         x="26.160946"
         y="265.30258"
         id="text865"
         inkscape:export-xdpi="96"
         inkscape:export-ydpi="96"><tspan
           sodipodi:role="line"
           id="tspan863"
           x="26.160946"
           y="265.30258"
           style="font-style:normal;font-variant:normal;font-weight:normal;font-stretch:normal;font-size:3.17499995px;font-family:'MS 33558';-inkscape-font-specification:'MS 33558, Normal';font-variant-ligatures:normal;font-variant-caps:normal;font-variant-numeric:normal;font-feature-settings:normal;text-align:start;writing-mode:lr-tb;text-anchor:start;fill:#66ff00;stroke:none;stroke-width:0.26458332;">50</tspan></text>
      <text
         xml:space="preserve"
         style="font-style:normal;font-variant:normal;font-weight:normal;font-stretch:normal;font-size:3.17499995px;line-height:1.25;font-family:'MS 33558';-inkscape-font-specification:'MS 33558, Normal';font-variant-ligatures:normal;font-variant-caps:normal;font-variant-numeric:normal;font-feature-settings:normal;text-align:start;letter-spacing:0px;word-spacing:0px;writing-mode:lr-tb;text-anchor:start;fill:#66ff00;fill-opacity:1;stroke:none;stroke-width:0.26458332;"
         x="0.87312728"
         y="275.54416"
         id="text869"
         inkscape:export-xdpi="96"
         inkscape:export-ydpi="96"><tspan
           sodipodi:role="line"
           id="tspan867"
           x="0.87312728"
           y="275.54416"
           style="font-style:normal;font-variant:normal;font-weight:normal;font-stretch:normal;font-size:3.17499995px;font-family:'MS 33558';-inkscape-font-specification:'MS 33558, Normal';font-variant-ligatures:normal;font-variant-caps:normal;font-variant-numeric:normal;font-feature-settings:normal;text-align:start;writing-mode:lr-tb;text-anchor:start;fill:#66ff00;stroke:none;stroke-width:0.26458332;">100</tspan></text>
      <text
         id="text873"
         y="238.17435"
         x="44.049774"
         style="font-style:normal;font-variant:normal;font-weight:normal;font-stretch:normal;font-size:3.17499995px;line-height:1.25;font-family:'MS 33558';-inkscape-font-specification:'MS 33558, Normal';font-variant-ligatures:normal;font-variant-caps:normal;font-variant-numeric:normal;font-feature-settings:normal;text-align:start;letter-spacing:0px;word-spacing:0px;writing-mode:lr-tb;text-anchor:start;fill:#66ff00;fill-opacity:1;stroke:none;stroke-width:0.26458332;"
         xml:space="preserve"
         inkscape:export-xdpi="96"
         inkscape:export-ydpi="96"><tspan
           style="font-style:normal;font-variant:normal;font-weight:normal;font-stretch:normal;font-size:3.17499995px;font-family:'MS 33558';-inkscape-font-specification:'MS 33558, Normal';font-variant-ligatures:normal;font-variant-caps:normal;font-variant-numeric:normal;font-feature-settings:normal;text-align:start;writing-mode:lr-tb;text-anchor:start;fill:#66ff00;stroke:none;stroke-width:0.26458332;"
           y="238.17435"
           x="44.049774"
           id="tspan871"
           sodipodi:role="line">0</tspan></text>
      <text
         id="text877"
         y="264.86707"
         x="54.164902"
         style="font-style:normal;font-variant:normal;font-weight:normal;font-stretch:normal;font-size:3.17499995px;line-height:1.25;font-family:'MS 33558';-inkscape-font-specification:'MS 33558, Normal';font-variant-ligatures:normal;font-variant-caps:normal;font-variant-numeric:normal;font-feature-settings:normal;text-align:start;letter-spacing:0px;word-spacing:0px;writing-mode:lr-tb;text-anchor:start;fill:#66ff00;fill-opacity:1;stroke:none;stroke-width:0.26458332;"
         xml:space="preserve"
         inkscape:export-xdpi="96"
         inkscape:export-ydpi="96"><tspan
           style="font-style:normal;font-variant:normal;font-weight:normal;font-stretch:normal;font-size:3.17499995px;font-family:'MS 33558';-inkscape-font-specification:'MS 33558, Normal';font-variant-ligatures:normal;font-variant-caps:normal;font-variant-numeric:normal;font-feature-settings:normal;text-align:start;writing-mode:lr-tb;text-anchor:start;fill:#66ff00;stroke:none;stroke-width:0.26458332;"
           y="264.86707"
           x="54.164902"
           id="tspan875"
           sodipodi:role="line">50</tspan></text>
      <text
         id="text881"
         y="275.35684"
         x="78.235214"
         style="font-style:normal;font-variant:normal;font-weight:normal;font-stretch:normal;font-size:3.17499995px;line-height:1.25;font-family:'MS 33558';-inkscape-font-specification:'MS 33558, Normal';font-variant-ligatures:normal;font-variant-caps:normal;font-variant-numeric:normal;font-feature-settings:normal;text-align:start;letter-spacing:0px;word-spacing:0px;writing-mode:lr-tb;text-anchor:start;fill:#66ff00;fill-opacity:1;stroke:none;stroke-width:0.26458332;"
         xml:space="preserve"
         inkscape:export-xdpi="96"
         inkscape:export-ydpi="96"><tspan
           style="font-style:normal;font-variant:normal;font-weight:normal;font-stretch:normal;font-size:3.17499995px;font-family:'MS 33558';-inkscape-font-specification:'MS 33558, Normal';font-variant-ligatures:normal;font-variant-caps:normal;font-variant-numeric:normal;font-feature-settings:normal;text-align:start;writing-mode:lr-tb;text-anchor:start;fill:#66ff00;stroke:none;stroke-width:0.26458332;"
           y="275.35684"
           x="78.235214"
           id="tspan879"
           sodipodi:role="line">100</tspan></text>
      <text
         xml:space="preserve"
         style="font-style:normal;font-variant:normal;font-weight:normal;font-stretch:normal;font-size:3.17499995px;line-height:1.25;font-family:'MS 33558';-inkscape-font-specification:'MS 33558, Normal';font-variant-ligatures:normal;font-variant-caps:normal;font-variant-numeric:normal;font-feature-settings:normal;text-align:start;letter-spacing:0px;word-spacing:0px;writing-mode:lr-tb;text-anchor:start;fill:#66ff00;fill-opacity:1;stroke:none;stroke-width:0.26458332;"
         x="38.804886"
         y="251.66119"
         id="text887"
         inkscape:export-xdpi="96"
         inkscape:export-ydpi="96"><tspan
           sodipodi:role="line"
           id="tspan885"
           x="38.804886"
           y="251.66119"
           style="font-style:normal;font-variant:normal;font-weight:normal;font-stretch:normal;font-size:3.17499995px;font-family:'MS 33558';-inkscape-font-specification:'MS 33558, Normal';font-variant-ligatures:normal;font-variant-caps:normal;font-variant-numeric:normal;font-feature-settings:normal;text-align:start;writing-mode:lr-tb;text-anchor:start;fill:#66ff00;stroke:none;stroke-width:0.26458332;">NOZ</tspan></text>
      <path
         style="opacity:0.98999999;fill:#66ff00;stroke:none;stroke-width:0.55963391;stroke-miterlimit:4;stroke-dasharray:none"
         d="m 0.0732352,226.44591 0.004,-1.3044 22.9650888,-0.47736 7.048764,1.19154 -7.049926,1.13209 z"
         id="rect889"
         inkscape:connector-curvature="0"
         sodipodi:nodetypes="cccccc"
         inkscape:export-xdpi="96"
         inkscape:export-ydpi="96" />
      <path
         inkscape:export-ydpi="96"
         inkscape:export-xdpi="96"
         sodipodi:nodetypes="cccccc"
         inkscape:connector-curvature="0"
         id="path892"
         d="m 83.194867,226.29662 -0.004,-1.3044 -22.965089,-0.47736 -7.048764,1.19154 7.049926,1.13209 z"
         style="opacity:0.98999999;fill:#66ff00;stroke:none;stroke-width:0.55963391;stroke-miterlimit:4;stroke-dasharray:none" />
      <rect
         style="opacity:0.98999999;fill:#000000;stroke:none;stroke-width:0.65196973;stroke-miterlimit:4;stroke-dasharray:none"
         id="rect849"
         width="74.083336"
         height="13.229167"
         x="5.2916665"
         y="281.125"
         ry="3.9128497"
         inkscape:export-xdpi="96"
         inkscape:export-ydpi="96" />
      <text
         inkscape:export-ydpi="96"
         inkscape:export-xdpi="96"
         id="text874"
         y="291.43033"
         x="39.687466"
         style="font-style:normal;font-variant:normal;font-weight:normal;font-stretch:normal;font-size:3.17499995px;line-height:1.25;font-family:'MS 33558';-inkscape-font-specification:'MS 33558, Normal';font-variant-ligatures:normal;font-variant-caps:normal;font-variant-numeric:normal;font-feature-settings:normal;text-align:start;letter-spacing:0px;word-spacing:0px;writing-mode:lr-tb;text-anchor:start;fill:#66ff00;fill-opacity:1;stroke:none;stroke-width:0.26458332;"
         xml:space="preserve"><tspan
           style="font-style:normal;font-variant:normal;font-weight:normal;font-stretch:normal;font-size:3.17499995px;font-family:'MS 33558';-inkscape-font-specification:'MS 33558, Normal';font-variant-ligatures:normal;font-variant-caps:normal;font-variant-numeric:normal;font-feature-settings:normal;text-align:start;writing-mode:lr-tb;text-anchor:start;fill:#66ff00;stroke:none;stroke-width:0.26458332;"
           y="291.43033"
           x="39.687466"
           id="tspan872"
           sodipodi:role="line">OIL</tspan></text>
    </g>
  </g>
</svg>
